<?xml version="1.0" standalone="no"?>
<!DOCTYPE svg PUBLIC "-//W3C//DTD SVG 20010904//EN"
 "http://www.w3.org/TR/2001/REC-SVG-20010904/DTD/svg10.dtd">
<svg version="1.0" xmlns="http://www.w3.org/2000/svg"
 width="85.000000pt" height="85.000000pt" viewBox="0 0 85.000000 85.000000"
 preserveAspectRatio="xMidYMid meet">
<metadata>
Created by potrace 1.11, written by Peter Selinger 2001-2013
</metadata>
<g transform="translate(0.000000,85.000000) scale(0.100000,-0.100000)"
fill="#000000" stroke="none">
<path d="M130 740 c0 -5 11 -10 25 -10 24 0 25 -3 25 -60 0 -33 4 -60 10 -60
6 0 10 27 10 60 0 53 2 60 20 60 11 0 20 5 20 10 0 6 -25 10 -55 10 -30 0 -55
-4 -55 -10z"/>
<path d="M298 740 c-34 -21 -31 -98 6 -122 20 -14 63 -8 79 10 23 25 22 85 -1
105 -21 19 -58 22 -84 7z m70 -22 c15 -15 15 -61 0 -76 -21 -21 -58 -14 -68
13 -20 53 30 101 68 63z"/>
<path d="M450 679 l0 -70 46 3 c54 3 77 26 58 56 -8 12 -8 22 -1 34 17 27 -9
48 -59 48 l-44 0 0 -71z m85 31 c0 -10 -12 -16 -32 -18 -28 -3 -33 0 -33 18 0
18 5 21 33 18 20 -2 32 -8 32 -18z m3 -57 c-2 -12 -14 -19 -36 -21 -27 -3 -32
0 -32 17 0 17 6 21 36 21 28 0 35 -3 32 -17z"/>
<path d="M590 747 c0 -2 11 -18 25 -37 15 -20 25 -47 25 -67 0 -18 5 -33 10
-33 6 0 10 14 10 31 0 20 11 45 31 70 18 23 25 39 18 39 -7 0 -23 -12 -35 -27
l-22 -28 -22 28 c-18 22 -40 36 -40 24z"/>
<path d="M140 440 l0 -70 38 0 c55 0 82 23 82 70 0 47 -27 70 -82 70 l-38 0 0
-70z m88 38 c15 -15 15 -61 0 -76 -7 -7 -25 -12 -40 -12 -27 0 -28 2 -28 50 0
48 1 50 28 50 15 0 33 -5 40 -12z"/>
<path d="M380 440 l0 -70 45 0 c25 0 45 5 45 10 0 6 -16 10 -35 10 -28 0 -35
4 -35 20 0 16 7 20 35 20 19 0 35 5 35 10 0 6 -16 10 -35 10 -28 0 -35 4 -35
20 0 16 7 20 35 20 19 0 35 5 35 10 0 6 -20 10 -45 10 l-45 0 0 -70z"/>
<path d="M580 503 c0 -19 56 -133 65 -133 5 0 20 24 32 53 34 78 36 87 25 87
-6 0 -18 -20 -28 -45 -9 -25 -21 -48 -26 -51 -5 -3 -18 17 -30 45 -18 44 -38
67 -38 44z"/>
<path d="M140 200 l0 -70 39 0 c50 0 91 37 61 55 -5 3 -7 20 -3 36 7 37 -7 49
-59 49 l-38 0 0 -70z m78 33 c-2 -11 -14 -19 -31 -21 -22 -3 -27 1 -27 17 0
17 6 21 31 21 24 0 30 -4 27 -17z m2 -63 c0 -16 -7 -20 -30 -20 -23 0 -30 4
-30 20 0 16 7 20 30 20 23 0 30 -4 30 -20z"/>
<path d="M290 200 l0 -70 45 0 c52 0 61 17 13 22 -33 3 -33 4 -36 61 -4 81
-22 71 -22 -13z"/>
<path d="M430 250 c-26 -26 -26 -74 0 -100 43 -43 110 -10 110 53 0 61 -67 90
-110 47z m78 -12 c15 -15 15 -61 0 -76 -38 -38 -93 12 -70 63 13 27 49 34 70
13z"/>
<path d="M607 252 c-9 -10 -17 -35 -17 -55 0 -45 32 -70 82 -65 29 3 33 7 36
36 3 29 1 32 -25 31 -17 -1 -21 -3 -10 -6 9 -2 17 -13 17 -24 0 -14 -7 -19
-28 -19 -35 0 -52 16 -52 51 0 35 22 52 60 47 19 -3 29 -1 27 6 -7 20 -72 19
-90 -2z"/>
</g>
</svg>
